<svg xmlns="http://www.w3.org/2000/svg" viewBox="0 0 32 32" id="addcart">
  <path d="M30 6H27a1 1 0 0 0 0 2h1.39l-4 8.09a3.53 3.53 0 0 1-3.17 2H9V5.42A4.4 4.4 0 0 0 7.71 2.26 4.47 4.47 0 0 0 4.58 1H2A1 1 0 0 0 2 3H4.59a2.49 2.49 0 0 1 1.71.68A2.42 2.42 0 0 1 7 5.42V18.91a1 1 0 0 0 0 .15A4.94 4.94 0 0 0 11.94 24H24a1 1 0 0 0 0-2H11.94a2.93 2.93 0 0 1-2.75-1.94h12a5.52 5.52 0 0 0 5-3.07L30.9 7.46A1 1 0 0 0 30 6zM10 25a3 3 0 1 0 3 3A3 3 0 0 0 10 25zm0 4a1 1 0 1 1 1-1A1 1 0 0 1 10 29zM21 25a3 3 0 1 0 3 3A3 3 0 0 0 21 25zm0 4a1 1 0 1 1 1-1A1 1 0 0 1 21 29z" fill="#ffffff" class="color000000 svgShape"></path>
  <path d="M17,6a1,1,0,0,0-1,1v3H13a1,1,0,0,0,0,2h3v3a1,1,0,0,0,2,0V12h3a1,1,0,0,0,0-2H18V7A1,1,0,0,0,17,6Z" fill="#ffffff" class="color000000 svgShape"></path>
</svg>
